<svg width="28" height="28" viewBox="0 0 28 28" fill="none" xmlns="http://www.w3.org/2000/svg">
<path d="M8.16699 22.1666V19.8333H16.4503C17.6753 19.8333 18.7399 19.4444 19.6441 18.6666C20.5482 17.8888 21.0003 16.9166 21.0003 15.75C21.0003 14.5833 20.5482 13.6111 19.6441 12.8333C18.7399 12.0555 17.6753 11.6666 16.4503 11.6666H9.10033L12.1337 14.7L10.5003 16.3333L4.66699 10.5L10.5003 4.66663L12.1337 6.29996L9.10033 9.33329H16.4503C18.3364 9.33329 19.9552 9.94579 21.3066 11.1708C22.658 12.3958 23.3337 13.9222 23.3337 15.75C23.3337 17.5777 22.658 19.1041 21.3066 20.3291C19.9552 21.5541 18.3364 22.1666 16.4503 22.1666H8.16699Z" fill="#1E1E1E"/>
</svg>
