<svg width="23" height="23" viewBox="0 0 23 23" fill="none" xmlns="http://www.w3.org/2000/svg">
<path d="M4.66699 18.2002V5.78684C4.66699 4.74141 4.66699 4.2183 4.87045 3.819C5.04941 3.46776 5.33477 3.18241 5.686 3.00344C6.0853 2.79999 6.60841 2.79999 7.65384 2.79999H16.2405C16.7632 2.79999 17.0249 2.79999 17.2246 2.90172C17.4002 2.9912 17.5421 3.13388 17.6316 3.30949C17.7333 3.50914 17.7337 3.7707 17.7337 4.29341V15.3067C17.7337 15.8295 17.7333 16.0905 17.6316 16.2901C17.5421 16.4657 17.4004 16.6089 17.2248 16.6984C17.0253 16.8 16.7639 16.8 16.2422 16.8H6.76699C5.60719 16.8 4.66699 17.7402 4.66699 18.9C4.66699 19.2866 4.98039 19.6 5.36699 19.6H15.3089C15.8306 19.6 16.092 19.6 16.2914 19.4984C16.4671 19.4089 16.6088 19.2658 16.6982 19.0902C16.8 18.8905 16.8003 18.6294 16.8003 18.1067V16.8" stroke="#1E1E1E" stroke-width="1.6" stroke-linecap="round" stroke-linejoin="round"/>
</svg>
