<svg width="28" height="28" viewBox="0 0 28 28" fill="none" xmlns="http://www.w3.org/2000/svg">
<path d="M5.83301 23.625V7.23356C5.83301 5.92677 5.83301 5.27289 6.08733 4.77376C6.31103 4.33472 6.66773 3.97802 7.10677 3.75432C7.6059 3.5 8.25978 3.5 9.56657 3.5H20.2999C20.9533 3.5 21.2805 3.5 21.53 3.62716C21.7495 3.73901 21.9269 3.91736 22.0387 4.13688C22.1659 4.38645 22.1663 4.71339 22.1663 5.36678V19.1334C22.1663 19.7868 22.1659 20.1131 22.0387 20.3626C21.9269 20.5822 21.7498 20.7611 21.5302 20.873C21.2809 21 21.5242 21 20.8721 21L20.3636 21L20.9997 22.6333C20.9997 23.2867 20.9992 23.6132 20.8721 23.8628C20.7602 24.0823 20.5831 24.2611 20.3636 24.373C20.1143 24.5 19.7875 24.5 19.1354 24.5H6.70801C6.22476 24.5 5.83301 24.1082 5.83301 23.625Z" fill="#FFD760"/>
<path d="M5.83301 23.625V7.23356C5.83301 5.92677 5.83301 5.27289 6.08733 4.77376C6.31103 4.33472 6.66773 3.97802 7.10677 3.75432C7.6059 3.5 8.25978 3.5 9.56657 3.5H20.2999C20.9533 3.5 21.2805 3.5 21.53 3.62716C21.7495 3.73901 21.9269 3.91736 22.0387 4.13688C22.1659 4.38645 22.1663 4.71339 22.1663 5.36678V19.1334C22.1663 19.7868 22.1659 20.1131 22.0387 20.3626C21.9269 20.5822 21.7498 20.7611 21.5302 20.873C21.2809 21 21.5242 21 20.8721 21H8.45801C7.00826 21 5.83301 22.1753 5.83301 23.625ZM5.83301 23.625C5.83301 24.1082 6.22476 24.5 6.70801 24.5H19.1354C19.7875 24.5 20.1143 24.5 20.3636 24.373C20.5831 24.2611 20.7602 24.0823 20.8721 23.8628C20.9992 23.6132 20.9997 23.2867 20.9997 22.6333L20.3636 21" stroke="#1E1E1E" stroke-width="2" stroke-linecap="round" stroke-linejoin="round"/>
</svg>
